<svg xmlns="http://www.w3.org/2000/svg" viewBox="0 0 100 100">
  <rect width="100" height="100" rx="16" fill="#1A1D21"/>
  <g transform="translate(10, 10) scale(0.8)">
    <g>
      <!-- Top Left -->
      <path d="M25 42.5a7.5 7.5 0 1 1 0-15h7.5v7.5A7.5 7.5 0 0 1 25 42.5zm0-25a7.5 7.5 0 1 1 7.5 7.5v-7.5zm7.5 17.5h7.5a7.5 7.5 0 1 1 0 15h-7.5z" fill="#E01E5A"/>
      <!-- Top Right -->
      <path d="M57.5 25a7.5 7.5 0 1 1 15 0v7.5h-7.5A7.5 7.5 0 0 1 57.5 25zm25 0a7.5 7.5 0 1 1-7.5 7.5V25zm-17.5 7.5v7.5a7.5 7.5 0 1 1-15 0v-7.5z" fill="#36C5F0"/>
      <!-- Bottom Right -->
      <path d="M75 57.5a7.5 7.5 0 1 1 0 15h-7.5v-7.5a7.5 7.5 0 0 1 7.5-7.5zm0 25a7.5 7.5 0 1 1-7.5-7.5v7.5zm-7.5-17.5h-7.5a7.5 7.5 0 1 1 0-15h7.5z" fill="#2EB67D"/>
      <!-- Bottom Left -->
      <path d="M42.5 75a7.5 7.5 0 1 1-15 0v-7.5h7.5a7.5 7.5 0 0 1 7.5 7.5zm-25 0a7.5 7.5 0 1 1 7.5-7.5V75zm17.5-7.5v-7.5a7.5 7.5 0 1 1 15 0v7.5z" fill="#ECB22E"/>
    </g>
  </g>
</svg>
